<?xml version="1.0" encoding="utf-8"?>
<!-- Generator: Adobe Illustrator 21.0.0, SVG Export Plug-In . SVG Version: 6.00 Build 0)  -->
<svg version="1.1" id="图层_1" xmlns="http://www.w3.org/2000/svg" xmlns:xlink="http://www.w3.org/1999/xlink" x="0px" y="0px"
	 viewBox="0 0 16 16" style="enable-background:new 0 0 16 16;" xml:space="preserve">
<style type="text/css">
	.st0{fill:#6E6E6E;}
</style>
<path class="st0" d="M4.3,3.2c1.3-1,3.1-1.5,4.9-1.1C11.9,2.7,13.8,5,14,7.6c0.2,3.7-2.8,6.6-6.3,6.4c-2.9-0.1-5.2-2.3-5.6-5l1.8,0
	c0.5,2.1,2.6,3.6,4.9,3.1c1.5-0.3,2.8-1.4,3.2-2.9c0.8-2.7-1.2-5.3-3.8-5.4C7.3,3.8,6.4,4,5.6,4.5L8.1,7l-6,0l0-6L4.3,3.2z"/>
</svg>
